<?xml version="1.0" standalone="no"?>
<!DOCTYPE svg PUBLIC "-//W3C//DTD SVG 20010904//EN"
 "http://www.w3.org/TR/2001/REC-SVG-20010904/DTD/svg10.dtd">
<svg version="1.0" xmlns="http://www.w3.org/2000/svg"
 width="700.000000pt" height="700.000000pt" viewBox="0 0 700.000000 700.000000"
 preserveAspectRatio="xMidYMid meet">
<metadata>
Created by potrace 1.14, written by Peter Selinger 2001-2017
</metadata>
<g transform="translate(0.000000,700.000000) scale(0.100000,-0.100000)"
fill="#000000" stroke="none">
<path d="M1425 6988 c-157 -50 -230 -139 -310 -382 -33 -99 -76 -305 -89 -423
-3 -29 -8 -75 -11 -101 -15 -129 -20 -452 -11 -612 6 -98 17 -222 21 -250 2
-14 6 -47 9 -75 7 -75 35 -251 51 -327 l15 -67 -41 -68 c-76 -124 -152 -310
-175 -433 -21 -107 -32 -220 -34 -335 -7 -498 -33 -710 -110 -886 -42 -95 -23
-144 65 -169 92 -26 205 7 304 87 l43 36 -7 -54 c-4 -30 -9 -63 -11 -74 -4
-21 -10 -65 -22 -175 -4 -36 -7 -171 -7 -300 1 -267 20 -411 80 -620 44 -151
110 -303 144 -334 46 -41 125 -12 138 51 4 21 8 40 8 43 1 3 5 22 10 43 13 66
43 134 50 116 3 -9 5 -20 4 -25 -1 -5 1 -25 4 -44 4 -19 9 -46 11 -60 2 -14
11 -54 21 -90 102 -397 333 -645 767 -824 45 -19 155 -59 243 -90 88 -31 169
-60 180 -65 11 -5 58 -24 105 -42 231 -88 410 -208 515 -344 69 -90 99 -108
149 -89 9 3 38 34 65 69 156 198 359 316 802 465 73 25 145 51 244 90 70 27
281 136 332 172 185 129 308 281 392 487 39 93 78 241 87 331 8 74 14 79 34
26 11 -27 22 -62 25 -78 3 -15 8 -43 11 -60 10 -53 32 -87 62 -95 39 -10 62
-6 82 12 55 50 161 344 194 540 28 164 34 245 33 445 0 214 -9 314 -41 506
l-12 72 46 -38 c110 -93 241 -124 330 -78 25 13 51 35 58 51 12 25 10 35 -16
100 -30 71 -56 160 -67 227 -3 19 -8 46 -10 60 -6 28 -10 65 -20 195 -7 84
-10 172 -15 450 -1 61 -6 135 -11 165 -5 30 -12 69 -14 85 -7 51 -61 226 -90
295 -31 75 -101 208 -122 231 -11 13 -12 26 -3 65 14 60 36 192 45 259 3 28 8
57 10 65 2 8 7 49 10 91 3 42 7 85 9 96 21 108 22 612 1 783 -2 25 -7 68 -10
95 -8 70 -44 264 -56 301 -5 17 -11 40 -13 50 -2 11 -16 55 -30 98 -63 186
-129 277 -241 331 -52 25 -72 29 -150 29 -83 1 -96 -2 -155 -31 -45 -23 -97
-64 -170 -135 -98 -95 -370 -328 -424 -363 -20 -13 -32 -14 -63 -6 -45 12
-239 52 -268 56 -11 1 -33 5 -50 8 -16 4 -50 9 -75 12 -25 3 -56 8 -70 10 -35
6 -120 16 -255 30 -210 22 -760 22 -895 1 -14 -2 -54 -7 -90 -10 -179 -16
-360 -46 -614 -101 -75 -16 -81 -15 -139 35 -12 10 -67 56 -122 101 -125 104
-156 132 -269 242 -119 114 -187 149 -294 153 -42 1 -90 -2 -107 -8z"/>
</g>
</svg>
